#tb 0: 1/1000
0,          0,          0,        0,    65520, 1156d318c00d299cf5bdc7e485966dab
0,         33,         33,        0,    65520, a8094f8f1e7e04e54251bee8c4c800ce
0,         66,         66,        0,    65520, e2a07d99ffe1cfe6b9fce36e93677fe1
0,        100,        100,        0,    65520, 63d179b00816dbad75b778d2c23955c6
0,        133,        133,        0,    65520, 407de5fb2dfdd52e6173905b09ff22f2
0,        166,        166,        0,    65520, 36900199c56310e651723de4e3ad2f2c
0,        200,        200,        0,    65520, 908db56e975b5db07af17fdc51b12be8
0,        233,        233,        0,    65520, 400e32490b1262009a481cc331a00e44
0,        266,        266,        0,    65520, dc43b786cba033cc92b9921d12f7b3d7
0,        300,        300,        0,    65520, e8c94c5965c729f5d1ef3ba4509c97c8
